<svg t="1741200736452" class="icon" viewBox="0 0 1024 1024" version="1.1" xmlns="http://www.w3.org/2000/svg" p-id="1826" width="200" height="200"><path d="M554.667 657.067c0-88.491 0-132.736 28.117-160.256s73.387-27.477 163.883-27.477 135.765 0 163.883 27.477c28.117 27.563 28.117 71.765 28.117 160.256v93.867c0 88.491 0 132.736-28.117 160.256s-73.387 27.477-163.883 27.477-135.765 0-163.883-27.477c-28.117-27.563-28.117-71.765-28.117-160.256zM85.333 366.933c0 88.491 0 132.736 28.117 160.256s73.387 27.477 163.883 27.477 135.765 0 163.883-27.477c28.117-27.563 28.117-71.765 28.117-160.256v-93.867c0-88.491 0-132.736-28.117-160.256s-73.387-27.477-163.883-27.477-135.765 0-163.883 27.477c-28.117 27.563-28.117 71.765-28.117 160.256z m469.334-132.266c0-46.379 0-69.547 7.296-87.893 9.761-24.239 28.184-43.272 51.344-53.597l0.624-0.248c17.621-7.595 40.021-7.595 84.736-7.595h96c44.715 0 67.115 0 84.736 7.595 23.509 10.069 42.24 29.44 51.968 53.845 7.296 18.347 7.296 41.515 7.296 87.893s0 69.547-7.296 87.893c-9.761 24.239-28.184 43.272-51.344 53.597l-0.624 0.248C861.782 384 839.382 384 794.667 384h-96c-44.715 0-67.115 0-84.736-7.595-23.784-10.573-42.207-29.606-51.733-53.187l-0.235-0.659c-7.296-18.347-7.296-41.515-7.296-87.893zM85.333 789.333c0 46.379 0 69.547 7.296 87.893 9.761 24.239 28.184 43.272 51.344 53.597l0.624 0.248c17.621 7.595 40.021 7.595 84.736 7.595h96c44.715 0 67.115 0 84.736-7.595 23.509-10.069 42.24-29.44 51.968-53.845 7.296-18.347 7.296-41.515 7.296-87.893s0-69.547-7.296-87.893c-9.761-24.239-28.184-43.272-51.344-53.597l-0.624-0.248C392.448 640 370.048 640 325.333 640h-96c-44.715 0-67.115 0-84.736 7.595-23.509 10.069-42.24 29.44-51.968 53.845-7.296 18.347-7.296 41.515-7.296 87.893z" p-id="1827" fill="#111111"></path></svg>